<?xml version="1.0" encoding="utf-8"?>
<!-- Generator: Adobe Illustrator 16.0.0, SVG Export Plug-In . SVG Version: 6.00 Build 0)  -->
<!DOCTYPE svg PUBLIC "-//W3C//DTD SVG 1.1//EN" "http://www.w3.org/Graphics/SVG/1.1/DTD/svg11.dtd">
<svg version="1.1" id="Слой_1" xmlns="http://www.w3.org/2000/svg" xmlns:xlink="http://www.w3.org/1999/xlink" x="0px" y="0px"
	 width="28px" height="28px" viewBox="0 0 28 28" enable-background="new 0 0 28 28" xml:space="preserve">
<g>
	<g>
		<path fill="#424242" d="M22,0H6C2.691,0,0,2.691,0,6v16c0,3.309,2.691,6,6,6h16c3.309,0,6-2.691,6-6V6C28,2.691,25.309,0,22,0z
			 M26,22c0,2.206-1.794,4-4,4H6c-2.206,0-4-1.794-4-4v-9h6.398c-0.221,0.624-0.347,1.291-0.347,1.989
			c0,3.306,2.689,5.995,5.995,5.995s5.994-2.689,5.994-5.995c0-0.698-0.126-1.366-0.347-1.989H26V22z M10.052,14.989
			c0-2.202,1.792-3.994,3.995-3.994c2.202,0,3.994,1.792,3.994,3.994c0,2.203-1.792,3.995-3.994,3.995
			C11.844,18.984,10.052,17.192,10.052,14.989z M26,11h-7.491c-1.099-1.227-2.689-2.005-4.462-2.005
			c-1.773,0-3.363,0.778-4.462,2.005H2V6c0-2.206,1.794-4,4-4h16c2.206,0,4,1.794,4,4V11z M21.5,5c-0.816,0-1.479,0.662-1.479,1.479
			c0,0.817,0.662,1.479,1.479,1.479c0.817,0,1.479-0.662,1.479-1.479C22.979,5.662,22.317,5,21.5,5z"/>
	</g>
</g>
</svg>
